PathFileType	4	(X/Y/Z)	 control3min.trc
DataRate	CameraRate	NumFrames	NumMarkers	Units	OrigDataRate	OrigDataStartFrame	OrigNumFrames
200	200	8	43	m	200	751	1000
Frame#	Time	C7			LSH			RSH			MAN			RASI			LASI			HIPR			HIPL			RPSI			LPSI			COX			RTHI1			RTHI2			RTHI3			RTHI4			RLKN			RMKN			RSHA1			RSHA2			RSHA3			RSHA4			RLMAL			RMMAL			RHEEL			RMET5			RMET1			RTOE			LTHI1			LTHI2			LTHI3			LTHI4			LLKN			LMKN			LSHA1			LSHA2			LSHA3			LSHA4			LLMAL			LMMAL			LHEEL			LMET5			LMET1			LTOE			
		X1	Y1	Z1	X2	Y2	Z2	X3	Y3	Z3	X4	Y4	Z4	X5	Y5	Z5	X6	Y6	Z6	X7	Y7	Z7	X8	Y8	Z8	X9	Y9	Z9	X10	Y10	Z10	X11	Y11	Z11	X12	Y12	Z12	X13	Y13	Z13	X14	Y14	Z14	X15	Y15	Z15	X16	Y16	Z16	X17	Y17	Z17	X18	Y18	Z18	X19	Y19	Z19	X20	Y20	Z20	X21	Y21	Z21	X22	Y22	Z22	X23	Y23	Z23	X24	Y24	Z24	X25	Y25	Z25	X26	Y26	Z26	X27	Y27	Z27	X28	Y28	Z28	X29	Y29	Z29	X30	Y30	Z30	X31	Y31	Z31	X32	Y32	Z32	X33	Y33	Z33	X34	Y34	Z34	X35	Y35	Z35	X36	Y36	Z36	X37	Y37	Z37	X38	Y38	Z38	X39	Y39	Z39	X40	Y40	Z40	X41	Y41	Z41	X42	Y42	Z42	X43	Y43	Z43	
751	3.7550	-0.295614	1.463178	-0.541712	-0.233811	1.442411	-0.720197	-0.277557	1.451470	-0.353170	-0.146321	1.405499	-0.532653	-0.167884	0.948612	-0.407029	-0.160233	0.945926	-0.647311	-0.250186	1.016570	-0.360528	-0.230876	1.001580	-0.697430	-0.335819	1.012243	-0.488561	-0.332639	1.013576	-0.577011	-0.332193	1.016836	-0.530135	-0.251191	0.765967	-0.328544	-0.236285	0.708957	-0.319638	-0.173022	0.724119	-0.313402	-0.180993	0.784436	-0.323799	-0.188725	0.446619	-0.337880	-0.161979	0.436034	-0.453639	-0.280852	0.342245	-0.324920	-0.298683	0.305805	-0.338841	-0.241440	0.285356	-0.336683	-0.227526	0.321774	-0.326640	-0.359431	0.091271	-0.388111	-0.309166	0.090737	-0.466648	-0.402310	0.087349	-0.435154	-0.260027	0.034266	-0.344092	-0.193928	0.046581	-0.408752	-0.164136	0.034756	-0.400913	-0.248348	0.758266	-0.727584	-0.226154	0.701448	-0.737522	-0.164425	0.720082	-0.742034	-0.177698	0.778267	-0.732920	-0.191693	0.446371	-0.717931	-0.155816	0.441128	-0.600946	-0.281052	0.329094	-0.727226	-0.298371	0.293589	-0.716217	-0.239851	0.270924	-0.720482	-0.229723	0.312596	-0.731410	-0.351602	0.092660	-0.684383	-0.316359	0.104369	-0.597356	-0.402934	0.073877	-0.632861	-0.245889	0.034832	-0.719794	-0.188524	0.047959	-0.648128	-0.162211	0.036383	-0.657019	
752	3.7600	-0.296273	1.468271	-0.541495	-0.234909	1.448208	-0.719891	-0.278007	1.456847	-0.353198	-0.147146	1.411231	-0.532705	-0.166903	0.953960	-0.406977	-0.159468	0.951149	-0.647331	-0.248667	1.022438	-0.360446	-0.230154	1.007082	-0.697004	-0.334961	1.017323	-0.488263	-0.331846	1.018546	-0.576773	-0.331437	1.021710	-0.529882	-0.251442	0.771330	-0.328477	-0.237110	0.714148	-0.319652	-0.173710	0.728664	-0.313538	-0.181049	0.789087	-0.323843	-0.192786	0.451057	-0.338286	-0.165517	0.440205	-0.454028	-0.284449	0.346018	-0.325021	-0.301604	0.309131	-0.339380	-0.244226	0.289215	-0.336454	-0.230711	0.325829	-0.326581	-0.359357	0.093427	-0.387768	-0.307911	0.092813	-0.465136	-0.401802	0.089729	-0.434765	-0.259860	0.034366	-0.344257	-0.193882	0.046595	-0.408652	-0.164168	0.034767	-0.400977	-0.248824	0.763484	-0.727240	-0.227192	0.706460	-0.737206	-0.165267	0.724464	-0.741606	-0.177959	0.782762	-0.732459	-0.195652	0.450564	-0.717574	-0.159553	0.445025	-0.600597	-0.283972	0.332553	-0.726952	-0.300985	0.296842	-0.716088	-0.242356	0.274611	-0.720786	-0.232547	0.316467	-0.731467	-0.351547	0.094578	-0.685095	-0.316060	0.106410	-0.598292	-0.402475	0.076200	-0.633657	-0.245722	0.034827	-0.719826	-0.188532	0.047977	-0.648245	-0.162299	0.036399	-0.656956	
753	3.7650	-0.296922	1.473496	-0.541280	-0.235966	1.454135	-0.719551	-0.278457	1.462340	-0.353232	-0.147788	1.417121	-0.532672	-0.165986	0.959413	-0.406894	-0.158728	0.956478	-0.647272	-0.247192	1.028414	-0.360385	-0.229374	1.012682	-0.696586	-0.334153	1.022558	-0.487959	-0.331089	1.023695	-0.576523	-0.330724	1.026729	-0.529618	-0.251657	0.776849	-0.328374	-0.237873	0.719513	-0.319637	-0.174347	0.733398	-0.313668	-0.181083	0.793923	-0.323874	-0.196745	0.455688	-0.338676	-0.169074	0.444578	-0.454433	-0.287789	0.349957	-0.325150	-0.304431	0.312705	-0.339746	-0.246919	0.293293	-0.336147	-0.233785	0.330069	-0.326492	-0.359216	0.095792	-0.387246	-0.306406	0.095118	-0.463435	-0.401243	0.092329	-0.434145	-0.259649	0.034460	-0.344344	-0.193839	0.046629	-0.408531	-0.164223	0.034788	-0.401024	-0.249290	0.768894	-0.726891	-0.228228	0.711669	-0.736876	-0.166113	0.729047	-0.741194	-0.178228	0.787457	-0.732027	-0.199480	0.455041	-0.717221	-0.163257	0.449115	-0.600234	-0.286793	0.336238	-0.726701	-0.303515	0.300349	-0.716043	-0.244764	0.278559	-0.721165	-0.235280	0.320581	-0.731570	-0.351416	0.096826	-0.685917	-0.315636	0.108740	-0.599358	-0.401907	0.078842	-0.634592	-0.245524	0.034826	-0.719877	-0.188538	0.048004	-0.648391	-0.162389	0.036420	-0.656881	
754	3.7700	-0.297552	1.478819	-0.541070	-0.236971	1.460148	-0.719180	-0.278905	1.467920	-0.353274	-0.148237	1.423128	-0.532547	-0.165162	0.964951	-0.406789	-0.158027	0.961893	-0.647127	-0.245776	1.034477	-0.360338	-0.228531	1.018377	-0.696175	-0.333410	1.027918	-0.487651	-0.330368	1.028997	-0.576265	-0.330064	1.031879	-0.529346	-0.251844	0.782486	-0.328238	-0.238580	0.725001	-0.319593	-0.174937	0.738291	-0.313786	-0.181101	0.798893	-0.323879	-0.200583	0.460463	-0.339055	-0.172636	0.449129	-0.454854	-0.290891	0.354068	-0.325226	-0.307136	0.316490	-0.339932	-0.249490	0.297553	-0.335781	-0.236719	0.334483	-0.326352	-0.358998	0.098343	-0.386519	-0.304771	0.097617	-0.461561	-0.400618	0.095139	-0.433301	-0.259382	0.034573	-0.344354	-0.193780	0.046691	-0.408369	-0.164287	0.034820	-0.401081	-0.249752	0.774474	-0.726538	-0.229246	0.717044	-0.736533	-0.166953	0.733816	-0.740800	-0.178502	0.792335	-0.731626	-0.203132	0.459766	-0.716870	-0.166895	0.453413	-0.599847	-0.289505	0.340118	-0.726467	-0.305954	0.304073	-0.716067	-0.247074	0.282744	-0.721608	-0.237913	0.324908	-0.731721	-0.351196	0.099380	-0.686852	-0.315064	0.111336	-0.600547	-0.401223	0.081757	-0.635634	-0.245276	0.034851	-0.719955	-0.188544	0.048040	-0.648564	-0.162484	0.036441	-0.656799	
755	3.7750	-0.298158	1.484210	-0.540866	-0.237913	1.466211	-0.718779	-0.279357	1.473549	-0.353324	-0.148566	1.429227	-0.532363	-0.164434	0.970549	-0.406667	-0.157367	0.967369	-0.646910	-0.244435	1.040594	-0.360304	-0.227628	1.024156	-0.695779	-0.332730	1.033374	-0.487345	-0.329703	1.034413	-0.576002	-0.329461	1.037136	-0.529073	-0.252008	0.788211	-0.328073	-0.239243	0.730580	-0.319523	-0.175492	0.743289	-0.313882	-0.181112	0.803974	-0.323858	-0.204296	0.465358	-0.339435	-0.176188	0.453825	-0.455293	-0.293772	0.358314	-0.325180	-0.309696	0.320422	-0.339962	-0.251912	0.301975	-0.335347	-0.239489	0.339042	-0.326162	-0.358671	0.101031	-0.385572	-0.303167	0.100182	-0.459551	-0.399923	0.098137	-0.432223	-0.259072	0.034702	-0.344289	-0.193738	0.046764	-0.408204	-0.164386	0.034854	-0.401149	-0.250212	0.780183	-0.726184	-0.230231	0.722561	-0.736182	-0.167783	0.738756	-0.740428	-0.178791	0.797379	-0.731257	-0.206612	0.464677	-0.716516	-0.170445	0.457931	-0.599427	-0.292114	0.344159	-0.726265	-0.308282	0.307972	-0.716152	-0.249277	0.287114	-0.722110	-0.240458	0.329418	-0.731932	-0.350863	0.102204	-0.687898	-0.314355	0.114167	-0.601863	-0.400405	0.084926	-0.636784	-0.244973	0.034905	-0.720055	-0.188543	0.048082	-0.648754	-0.162581	0.036465	-0.656716	
756	3.7800	-0.298740	1.489632	-0.540670	-0.238779	1.472284	-0.718355	-0.279810	1.479203	-0.353382	-0.149002	1.435370	-0.532223	-0.163801	0.976185	-0.406533	-0.156772	0.972888	-0.646628	-0.243179	1.046748	-0.360267	-0.226678	1.030018	-0.695389	-0.332118	1.038902	-0.487043	-0.329090	1.039915	-0.575737	-0.328920	1.042486	-0.528799	-0.252166	0.793978	-0.327892	-0.239886	0.736219	-0.319427	-0.176038	0.748365	-0.313958	-0.181133	0.809119	-0.323807	-0.207895	0.470338	-0.339817	-0.179714	0.458623	-0.455740	-0.296434	0.362584	-0.325149	-0.312101	0.324459	-0.339845	-0.254179	0.306520	-0.334845	-0.242100	0.343730	-0.325905	-0.358219	0.103830	-0.384406	-0.301630	0.102713	-0.457440	-0.399128	0.101301	-0.430907	-0.258716	0.034847	-0.344157	-0.193715	0.046843	-0.408023	-0.164507	0.034897	-0.401230	-0.250664	0.785981	-0.725831	-0.231186	0.728186	-0.735828	-0.168600	0.743838	-0.740078	-0.179096	0.802551	-0.730921	-0.209942	0.469722	-0.716156	-0.173904	0.462666	-0.598961	-0.294621	0.348324	-0.726081	-0.310507	0.312006	-0.716282	-0.251351	0.291673	-0.722669	-0.242914	0.334090	-0.732198	-0.350394	0.105244	-0.689043	-0.313522	0.117167	-0.603298	-0.399455	0.088306	-0.638018	-0.244625	0.034990	-0.720174	-0.188553	0.048126	-0.648980	-0.162680	0.036476	-0.656623	
757	3.7850	-0.299295	1.495057	-0.540480	-0.239561	1.478332	-0.717911	-0.280244	1.484866	-0.353450	-0.149200	1.441653	-0.531956	-0.163258	0.981834	-0.406390	-0.156235	0.978435	-0.646293	-0.242023	1.052909	-0.360219	-0.225690	1.035963	-0.695009	-0.331572	1.044472	-0.486749	-0.328532	1.045488	-0.575474	-0.328439	1.047906	-0.528527	-0.252346	0.799747	-0.327704	-0.240541	0.741873	-0.319317	-0.176596	0.753480	-0.314010	-0.181186	0.814276	-0.323716	-0.211402	0.475354	-0.340211	-0.183195	0.463492	-0.456191	-0.298897	0.366848	-0.325166	-0.314348	0.328587	-0.339559	-0.256286	0.311164	-0.334271	-0.244550	0.348519	-0.325580	-0.357641	0.106719	-0.383035	-0.300154	0.105216	-0.455254	-0.398191	0.104593	-0.429363	-0.258313	0.035016	-0.343956	-0.193704	0.046933	-0.407832	-0.164644	0.034956	-0.401316	-0.251110	0.791840	-0.725478	-0.232110	0.733885	-0.735471	-0.169398	0.749030	-0.739753	-0.179418	0.807821	-0.730615	-0.213159	0.474843	-0.715786	-0.177275	0.467592	-0.598452	-0.297047	0.352602	-0.725943	-0.312620	0.316139	-0.716437	-0.253320	0.296372	-0.723278	-0.245282	0.338890	-0.732512	-0.349782	0.108428	-0.690276	-0.312544	0.120297	-0.604835	-0.398372	0.091846	-0.639326	-0.244230	0.035107	-0.720310	-0.188513	0.048213	-0.649243	-0.162749	0.036511	-0.656538	
758	3.7900	-0.299818	1.500454	-0.540296	-0.240281	1.484328	-0.717463	-0.280652	1.490505	-0.353520	-0.149511	1.447913	-0.531736	-0.162801	0.987467	-0.406238	-0.155750	0.983985	-0.645922	-0.240978	1.059047	-0.360161	-0.224704	1.041996	-0.694632	-0.331089	1.050063	-0.486467	-0.328028	1.051101	-0.575213	-0.328019	1.053386	-0.528257	-0.252574	0.805480	-0.327523	-0.241235	0.747499	-0.319214	-0.177198	0.758583	-0.314032	-0.181304	0.819421	-0.323597	-0.214823	0.480394	-0.340614	-0.186613	0.468404	-0.456642	-0.301304	0.371137	-0.325090	-0.316447	0.332756	-0.339137	-0.258243	0.315877	-0.333629	-0.246860	0.353392	-0.325191	-0.356931	0.109692	-0.381485	-0.298795	0.107681	-0.453061	-0.397131	0.108016	-0.427645	-0.257861	0.035218	-0.343708	-0.193719	0.047053	-0.407618	-0.164806	0.035024	-0.401406	-0.251566	0.797729	-0.725127	-0.233000	0.739624	-0.735112	-0.170182	0.754304	-0.739449	-0.179756	0.813165	-0.730326	-0.216289	0.479995	-0.715401	-0.180536	0.472677	-0.597906	-0.299392	0.356958	-0.725832	-0.314616	0.320326	-0.716589	-0.255192	0.301153	-0.723920	-0.247571	0.343783	-0.732855	-0.349017	0.111693	-0.691592	-0.311423	0.123515	-0.606458	-0.397150	0.095523	-0.640683	-0.243786	0.035256	-0.720471	-0.188465	0.048330	-0.649557	-0.162811	0.036532	-0.656461	
